<?xml version="1.0" standalone="no"?><!DOCTYPE svg PUBLIC "-//W3C//DTD SVG 1.1//EN" "http://www.w3.org/Graphics/SVG/1.1/DTD/svg11.dtd"><svg t="1727226601374" class="icon" viewBox="0 0 1024 1024" version="1.1" xmlns="http://www.w3.org/2000/svg" p-id="33150" xmlns:xlink="http://www.w3.org/1999/xlink" width="128" height="128"><path d="M512 512m-470.460777 0a470.460777 470.460777 0 1 0 940.921554 0 470.460777 470.460777 0 1 0-940.921554 0Z" fill="#70C4FF" p-id="33151"></path><path d="M505.769117 57.145509s-47.072247 265.851027 55.388399 285.237382 146.77469-8.307845 199.38827 44.309889 170.842516 34.394477 174.464737-19.386355c0 0-72.004089-268.621693-429.241406-310.160916zM214.562548 864.796774s108.666607 16.528457 208.472898-25.106306c105.704861-44.093885 201.465231-149.811207 147.634552-275.558743C486.008908 366.388408 404.143408 471.017403 432.871934 315.785327c28.724373-155.232076-61.527897-217.100595-124.480589-217.100595s-337.672343 410.465677-93.828797 766.112042z" fill="#A3D9FF" opacity=".26" p-id="33152"></path><path d="M191.740899 856.285387s94.281574 15.63121 180.878392-23.739665c91.71445-41.692918 174.79705-141.657058 128.090348-260.546468-73.457962-186.972196-144.485879-88.038229-119.562345-234.81292s-53.386209-205.274378-108.00198-205.274378c-54.619924 0-292.971985 388.105114-81.404415 724.373431z" fill="#A3D9FF" opacity=".26" p-id="33153"></path><path d="M512 62.308834c247.960083 0 449.691166 201.726928 449.691166 449.691166s-201.722774 449.691166-449.691166 449.691166C264.039917 961.691166 62.308834 759.960083 62.308834 512S264.039917 62.308834 512 62.308834zM20.769611 512c0 270.864811 220.365578 491.230389 491.230389 491.230389s491.230389-220.365578 491.230389-491.230389S782.864811 20.769611 512 20.769611 20.769611 241.135189 20.769611 512z" fill="#6E6E96" p-id="33154"></path><path d="M209.73569 151.51847c149.416585 22.925497 95.585906 150.558913 137.714986 299.792725 27.336963 96.811313 68.610335 82.667208 105.580243 154.467755 56.464266 74.662599-216.003959 324.005939-362.093252 115.703351-144.805731-357.5364 118.798024-569.963832 118.798023-569.963831z" fill="#9EE3C3" p-id="33155"></path><path d="M206.587017 172.047154c83.954923 12.877159 91.29075 55.990719 99.864446 152.282791 3.54745 39.836115 7.568446 84.985096 21.023001 132.622277 17.438166 61.743901 41.06983 83.464761 63.92471 104.458684 15.074584 13.861639 29.31423 26.94234 43.184176 53.868064 0.544164 1.05925 1.17556 2.068653 1.902497 3.019901 5.26302 6.961974 4.307617 20.050983-2.616971 35.914813-23.448891 53.701907-104.234372 119.018182-182.672887 126.894018-57.689673 5.786414-105.879325-18.285566-143.235549-71.55962 0.905555 1.29187 1.653261 2.67928 2.247272 4.128999C-27.237268 374.363939 220.253422 169.716803 222.770699 167.689689a20.782073 20.782073 0 0 1-16.183682 4.357465zM73.939817 733.404058c58.06768 82.804287 130.694857 94.115417 181.393478 89.039325 97.156088-9.75341 188.072986-86.28112 216.593817-151.605702 13.300859-30.464866 12.474229-58.021987-2.326197-77.591115 0.718629 0.951248 1.354179 1.964805 1.902497 3.024056-17.247085-33.493075-35.71127-50.457694-52.007108-65.42843-20.29191-18.651111-37.817309-34.755868-52.048646-85.167869-12.395304-43.902805-16.233528-86.995595-19.627283-125.024753-7.846759-88.09223-15.257357-171.295294-134.931858-189.655631a20.777919 20.777919 0 0 0-16.183681 4.357465c-2.837129 2.284657-70.068361 57.166279-119.329725 157.952895C31.906277 386.331389-5.985802 537.484313 71.696699 729.275059c0.589857 1.453873 1.341717 2.841283 2.243118 4.128999z" fill="#6E6E96" p-id="33156"></path><path d="M552.014733 43.250639s-73.703043 251.225066 88.258387 251.225066c164.578401 0 195.433736 148.984577 298.359623 19.049888-109.759089-264.405462-386.61801-270.274954-386.61801-270.274954z" fill="#9EE3C3" p-id="33157"></path><path d="M532.084214 37.40607c-1.873419 6.392886-45.261137 157.404577 12.154377 234.081829 21.741629 29.035917 54.054991 43.757417 96.034529 43.757418 62.42099 0 103.436819 23.021037 139.621636 43.333717 53.236668 29.870855 103.528205 58.092603 175.017208-32.151358a20.761304 20.761304 0 0 0 2.903592-20.856844c-59.421858-143.127547-166.397819-212.502203-245.67958-245.500962-85.570799-35.61573-156.702565-37.509918-159.680927-37.576381a20.75715 20.75715 0 0 0-20.370835 14.912581z m390.269308 263.221594c-49.493984 62.483299-70.757912 50.54908-122.125316 21.72086-38.614862-21.671013-86.671589-48.64243-159.955086-48.64243-28.583139 0-49.120131-8.868624-62.782381-27.116805-37.418532-49.971685-16.69046-159.498154-5.545486-197.489928a20.773765 20.773765 0 0 1-20.366681 14.920889c10.737889 0.257543 264.8167 9.196784 367.879666 257.464258a20.744688 20.744688 0 0 1 2.895284-20.856844z" fill="#6E6E96" p-id="33158"></path><path d="M752.827799 916.197409s-106.012251-169.500799 0-240.117478c106.024713-70.616679 229.632978-66.462757 229.632978-164.079931 0 267.927988-229.632978 404.197409-229.632978 404.197409z" fill="#9EE3C3" p-id="33159"></path><path d="M770.436275 905.181207l0.008308 0.016615c-0.951248-1.524489-94.040647-153.263117-6.106266-211.833421 35.462035-23.623356 74.201514-38.918098 108.384141-52.414191 67.114922-26.506178 130.507931-51.541868 130.507931-128.95021a20.769611 20.769611 0 1 0-41.539223 0c0 253.173256-217.270906 385.031211-219.464177 386.335543a20.769611 20.769611 0 0 1 28.209286 6.845664z m191.254891-393.181207c0 46.964245-35.740347 63.260083-104.226065 90.314578-36.101739 14.256261-77.022027 30.410865-116.151975 56.480882-121.419149 80.876867-10.862507 260.795703-6.097958 268.413997a20.761304 20.761304 0 0 0 28.209287 6.84151c2.46743-1.466335 61.062658-36.629287 120.040046-106.033021 78.342974-92.196305 119.75758-201.473539 119.75758-316.017946a20.769611 20.769611 0 1 0-41.530915 0z" fill="#6E6E96" p-id="33160"></path><path d="M507.846078 37.385301C248.018238 37.385301 37.385301 248.018238 37.385301 507.846078s210.632938 470.460777 470.460777 470.460777 470.460777-210.632938 470.460777-470.460777S767.673917 37.385301 507.846078 37.385301z m339.84069 523.921757c-16.607381 57.984601-116.833218 40.072888-156.644409 83.190601-32.392286 35.084028-1.050942 134.304616-44.538355 155.286077-50.05061 24.142596-106.178408 37.663613-165.467341 37.663614-65.665204 0 80.062698-119.778349 26.119864-149.001193-19.191121-10.401421-29.040071 46.889475-38.079006-80.357627-3.318984-46.727472-70.550216-68.394331-114.573485-175.374445-11.057741-26.871723-31.715197-216.066268-39.815345-205.26607-49.847068 66.462757-8.307845 274.76119 38.768557 383.544107 29.754545 68.755722-171.735609 188.259912-171.735609 81.429339 0-211.584186-95.498674-86.966517-82.027504-236.316639C118.615251 246.356669 270.428649 74.770601 481.036663 74.770601c88.848244 0 179.1919 25.55493 243.702313 76.681406 30.506405 24.16752 55.234705 54.063299 71.302076 89.666566 28.196825 62.487453-197.224077 22.327332-176.728623 32.583367 41.80092 20.919153 254.959442 98.663962 232.411952 92.536927-294.151699-79.933927-11.23636 67.978938 10.646503 89.870109 36.496361 36.492207-5.117632 71.783931-14.684116 105.198082z" fill="#6E6E96" opacity=".2" p-id="33161"></path><path d="M669.159496 558.38685s-47.080555 38.768557-19.386355 66.462757 81.686882-26.298482 96.923469-41.535069 9.948644-64.211331-77.537114-24.927688z" fill="#9EE3C3" p-id="33162"></path><path d="M668.881183 653.395361h-0.008308c-13.035008 0-24.715838-4.793626-33.78385-13.861639-10.322497-10.322497-15.427667-23.162271-14.754732-37.127757 1.50372-31.096262 32.134743-57.182894 35.619884-60.053255l2.155886-1.773725 2.5422-1.142328c24.744915-11.111742 46.033767-16.744461 63.272545-16.744461 32.234437 0 43.566337 18.966809 46.947629 27.120959 6.671199 16.113065 2.770666 35.92312-9.491712 48.185498-23.777051 23.785359-59.239086 55.396708-92.499542 55.396708z m11.535442-77.275416c-7.884145 7.173824-18.210795 19.897288-18.592956 28.321442-0.066463 1.495412 0.083078 3.169443 2.633587 5.724105 1.100789 1.096635 2.130962 1.690646 4.415619 1.690646h0.004154c7.431367 0 25.517545-5.616103 63.123003-43.221561 0.394623-0.54001 0.739398-2.276349 0.490163-2.920208-0.726936-0.552472-12.519922-6.824894-52.07357 10.405576z" fill="#6E6E96" p-id="33163"></path></svg>