<?xml version="1.0" standalone="no"?><!DOCTYPE svg PUBLIC "-//W3C//DTD SVG 1.1//EN" "http://www.w3.org/Graphics/SVG/1.1/DTD/svg11.dtd"><svg t="1710850353810" class="icon" viewBox="0 0 1024 1024" version="1.1" xmlns="http://www.w3.org/2000/svg" p-id="8349" xmlns:xlink="http://www.w3.org/1999/xlink" width="128" height="128"><path d="M551.41 326.72h-74.14c-10.24 0-18.56-8.3-18.56-18.54 0-10.24 8.31-18.54 18.56-18.54h74.14c10.24 0 18.56 8.3 18.56 18.54 0 10.24-8.32 18.54-18.56 18.54z" fill="#F6BB42" p-id="8350"></path><path d="M773.93 697.54c-245.78 0-445.01-199.23-445.01-445 0-55.23 10.08-108.13 28.48-156.94C189.08 159.05 69.34 321.61 69.34 512.14c0 245.76 199.23 445 445.01 445 190.51 0 353.07-119.74 416.51-288.07-48.8 18.4-101.7 28.47-156.93 28.47z" fill="#FFCE54" p-id="8351"></path><path d="M551.41 920.05c-245.75 0-444.98-199.23-444.98-445 0-113.41 42.44-216.91 112.26-295.48-91.61 81.5-149.35 200.28-149.35 332.57 0 245.76 199.23 445 445.01 445 132.26 0 251.05-57.74 332.55-149.37-78.57 69.85-182.08 112.28-295.49 112.28z" fill="#F6BB42" p-id="8352"></path><path d="M736.84 308.17c0 10.24-8.31 18.54-18.55 18.54-10.22 0-18.53-8.3-18.53-18.54 0-10.24 8.32-18.54 18.53-18.54 10.24 0 18.55 8.3 18.55 18.54z" fill="#4A89DC" p-id="8353"></path><path d="M644.14 493.59c0 10.23-8.31 18.54-18.56 18.54-10.24 0-18.53-8.32-18.53-18.54 0-10.24 8.29-18.54 18.53-18.54 10.25 0 18.56 8.3 18.56 18.54z" fill="#48CFAD" p-id="8354"></path><path d="M959.33 270.79c0 10.24-8.31 18.54-18.53 18.54-10.24 0-18.56-8.3-18.56-18.54 0-10.24 8.31-18.54 18.56-18.54 10.22 0 18.53 8.29 18.53 18.54z" fill="#ED5564" p-id="8355"></path><path d="M625.58 85.37c0 10.24-8.29 18.54-18.53 18.54-10.24 0-18.56-8.3-18.56-18.54 0-10.23 8.31-18.53 18.56-18.53 10.25 0 18.53 8.3 18.53 18.53z" fill="#AC92EB" p-id="8356"></path><path d="M514.35 234c-10.24 0-18.56 8.31-18.56 18.54V363.8c0 10.23 8.31 18.53 18.56 18.53 10.22 0 18.53-8.3 18.53-18.53V252.54c0-10.23-8.31-18.54-18.53-18.54z" fill="#FFCE54" p-id="8357"></path><path d="M829.55 437.96c-10.24 0-18.53 8.3-18.53 18.54v111.24c0 10.24 8.29 18.54 18.53 18.54 10.24 0 18.53-8.3 18.53-18.54V456.51c-0.01-10.25-8.29-18.55-18.53-18.55z" fill="#F6BB42" p-id="8358"></path><path d="M866.63 530.67h-74.17c-10.24 0-18.53-8.3-18.53-18.53 0-10.24 8.29-18.54 18.53-18.54h74.17c10.24 0 18.53 8.3 18.53 18.54 0 10.22-8.28 18.53-18.53 18.53z" fill="#FFCE54" p-id="8359"></path></svg>