<?xml version="1.0" standalone="no"?><!DOCTYPE svg PUBLIC "-//W3C//DTD SVG 1.1//EN" "http://www.w3.org/Graphics/SVG/1.1/DTD/svg11.dtd"><svg t="1710850426744" class="icon" viewBox="0 0 1024 1024" version="1.1" xmlns="http://www.w3.org/2000/svg" p-id="20657" xmlns:xlink="http://www.w3.org/1999/xlink" width="128" height="128"><path d="M752.64 887.552a64 64 0 1 1-115.008 56.128 64 64 0 0 1 115.008-56.128z m-418.176-29.44a64 64 0 1 1-56.128 115.072 64 64 0 0 1 56.128-115.072z m617.472-308.8a64 64 0 1 1-28.8 124.736 64 64 0 0 1 28.8-124.736z m-825.6 48a64 64 0 1 1-124.672 28.8 64 64 0 0 1 124.672-28.8z m774.4-404.928a64 64 0 1 1-99.456 80.576 64 64 0 0 1 99.456-80.576zM190.784 182.912a64 64 0 1 1-80.576 99.52 64 64 0 0 1 80.576-99.52zM500.736 0a64 64 0 1 1 0 128 64 64 0 0 1 0-128zM500.736 192a320 320 0 1 1 0 640 320 320 0 0 1 0-640z" fill="#F5A623" p-id="20658"></path><path d="M500.736 256a256 256 0 1 0 0 512 256 256 0 0 0 0-512z" fill="#F8E71C" p-id="20659"></path></svg>